<?xml version="1.0" encoding="UTF-8"?>
<svg id="_レイヤー_1" data-name="レイヤー_1" xmlns="http://www.w3.org/2000/svg" version="1.1" viewBox="0 0 256 256" fill="#140d00">
  <!-- Generator: Adobe Illustrator 30.2.1, SVG Export Plug-In . SVG Version: 2.1.1 Build 1)  -->
  <defs>
    <style>
      .st0 {
        fill: none;
      }
    </style>
  </defs>
  <rect x="67" y="99.99" width="22" height="11.01"/>
  <polygon points="243 155 243 177 232 177 232.01 155.01 221 155 220.99 144 232 144 232 155.01 243 155"/>
  <polygon points="144 12 144.01 33.98 133 34.02 133 56 122 56 122 45 111 45 111 34 99.99 33.99 100 12 144 12"/>
  <polygon points="232 177 232 188 243 188 243 199 232 198.99 232 210.01 243 210 243 221 210.02 220.99 209.99 232 199 232 199 243 177 243 177.01 221.01 166 221 166 210 177.01 209.99 176.99 188 188 188 188 199 199 199 199.01 210.01 221 210 221 177 232 177"/>
  <rect x="155" y="133" width="11" height="11"/>
  <polygon points="155 199 154.99 220.99 166 221 166 243 155 243 155 232.01 144 231.98 144 199 155 199"/>
  <rect x="45" y="122" width="11" height="11"/>
  <polygon points="100 111 100 122 89 121.99 89 133 78 133.01 78 122 89.01 122 89 111 100 111"/>
  <rect x="56" y="111" width="11" height="11"/>
  <polygon points="133 56 144.01 56 144 78 133 77.99 133 89 122 89.01 122 77.99 110.99 78.01 111 100.01 132.99 99.99 133.01 111 121.99 111 122.01 122.01 143.99 122.01 144 111 155 111 155 100 198.97 100 199.01 111 210 111 210 122 221 122 221 133 210.01 133 209.98 144 177 144 176.99 122.01 188 122 188.01 110.99 177 111 177 122.01 155 121.99 155 133 144 132.99 144 144 155 144 155 155 166 155 166.01 166.01 187.99 166.01 188.01 154.99 209.99 154.99 210 166 221 166 221 177 210.01 177 209.99 188 188 188 188 176.99 165.99 177 166.01 199 155 199 155 188 144 188 144 199 132.99 199 133.01 220.99 122 221 122 232 111 232 111 243 100 243 100 210.01 122 209.99 122 166 100 166 99.99 144.01 111 143.99 111.01 155.01 133.01 154.99 132.99 176.99 144.01 176.99 144.01 155.01 132.99 154.99 133 132.99 100 133.01 100 122 111 122.01 111 111 100 111 100 56.05 111 55.97 111.01 67.01 133 67 133 56"/>
  <polygon points="243 100 243 133 232 133 232 122 221 122 221 100 243 100"/>
  <polygon points="155 100 143.99 100 144 78 155.01 78.01 155 100"/>
  <polygon points="45 122 34 122 34 110.99 22.99 111.01 22.99 132.99 34 133 34.01 144.01 66.99 143.99 66.96 155 12 155 12 100 45 100 45 122"/>
  <polygon class="st0" points="188 188 176.99 188 177.01 209.99 166 210 166 221 154.99 220.99 155 199 166.01 199 165.99 177 188 176.99 188 188"/>
  <polygon class="st0" points="144 78 143.99 100 155 100 155 111 144 111 143.99 122.01 122.01 122.01 121.99 111 133.01 111 132.99 99.99 111 100.01 110.99 78.01 122 77.99 122 89.01 133 89 133 77.99 144 78"/>
  <path class="st0" d="M45,122v11s11,0,11,0v-11s10.99,0,10.99,0v-11h22v11s-11,0-11,0v11.01s11.01,0,11.01,0v-11.01s11,0,11,0v11.01s33-.01,33-.01v22s11,.02,11,.02v21.99s-11.01,0-11.01,0v-22s-21.98.02-21.98.02v-11.02s-11.02.02-11.02.02v21.99s22.01,0,22.01,0v43.99s-22.01.01-22.01.01v32.99s-11,0-11,0v-77s-77,0-77,0v-11h54.96s.04-11.01.04-11.01l-32.98.02-.02-11.01h-11s0-21.99,0-21.99l11.01-.02v11.01s11,0,11,0ZM89.04,155l-.05-11.01h-11s0,11.01,0,11.01h11.04ZM111.04,188l-.05-11.01h-11s0,11.01,0,11.01h11.04Z"/>
  <rect class="st0" x="232" y="177" width="11" height="11"/>
  <rect class="st0" x="144" y="188" width="11" height="11"/>
  <polygon class="st0" points="100 122 100 111 111 111 111 122.01 100 122"/>
  <polygon class="st0" points="221 122 232 122 232 133 243 133 243 155 232 155.01 232 144 220.99 144 221 155 232.01 155.01 232 177 221 177 221 166 210 166 209.99 154.99 188.01 154.99 187.99 166.01 166.01 166.01 166 155 155 155 155 144 166 144 166 133 155 133 155 121.99 177 122.01 177 111 188.01 110.99 188 122 176.99 122.01 177 144 209.98 144 210.01 133 221 133 221 122"/>
  <polygon class="st0" points="144 199 144 231.98 155 232.01 155 243 111 243 111 232 122 232 122 221 133.01 220.99 132.99 199 144 199"/>
  <rect class="st0" x="144" y="133" width="11" height="11"/>
  <polygon class="st0" points="177 243 166 243 166 221 177.01 221.01 177 243"/>
  <polygon class="st0" points="166 12 166 89 243 89 243 100 221 100 221 122 210 122 210 111 199.01 111 198.97 100 155 100 155.01 78.01 144 78 144.01 56 133 56 133 34.02 144.01 33.98 144 12 166 12"/>
  <polygon class="st0" points="100 12 99.99 33.99 111 34 111 45 122 45 122 56 133 56 133 67 111.01 67.01 111 55.97 100 56.05 100 111 89 111 89 99.99 67 99.99 67 111 56 111 56 122 45 122 45 100 12 100 12 89 89 89 89 12 100 12"/>
  <polygon class="st0" points="221 177 221 210 199.01 210.01 199 199 188 199 188 188 209.99 188 210.01 177 221 177"/>
  <path d="M89,12v77s-77,0-77,0V12h77ZM78.01,77.97V22.99s-55.01,0-55.01,0v55.02s55.01-.05,55.01-.05Z"/>
  <path d="M89,243H12v-77h77s0,77,0,77ZM78.01,231.97v-54.98s-55.01,0-55.01,0v55.02s55.01-.05,55.01-.05Z"/>
  <path d="M166,12h77v77h-77s0-77,0-77ZM232.01,77.97V22.99s-55.01,0-55.01,0v55.02s55.01-.05,55.01-.05Z"/>
  <polygon class="st0" points="243 221 243 232 232 232 232 243 199 243 199 232 209.99 232 210.02 220.99 243 221"/>
  <polygon class="st0" points="243 199 243 210 232 210.01 232 198.99 243 199"/>
  <rect x="232" y="232" width="11" height="11"/>
  <polygon points="89.04 155 78 155 78 143.99 88.99 143.99 89.04 155"/>
  <polygon points="111.04 188 100 188 100 176.99 110.99 176.99 111.04 188"/>
  <path class="st0" d="M78.01,77.97l-55.01.05V23s55,0,55,0v54.98ZM67.01,66.97v-32.98s-33.01,0-33.01,0v33.02s33.01-.05,33.01-.05Z"/>
  <path class="st0" d="M78.01,231.97l-55.01.05v-55.02s55,0,55,0v54.98ZM67.01,220.97v-32.98s-33.01,0-33.01,0v33.02s33.01-.05,33.01-.05Z"/>
  <path class="st0" d="M232.01,77.97l-55.01.05V23s55,0,55,0v54.98ZM221.01,66.97v-32.98s-33.01,0-33.01,0v33.02s33.01-.05,33.01-.05Z"/>
  <polygon points="67.01 66.97 34 67.02 34 34 67 33.99 67.01 66.97"/>
  <polygon points="67.01 220.97 34 221.02 34 188 67 187.99 67.01 220.97"/>
  <polygon points="221.01 66.97 188 67.02 188 34 221 33.99 221.01 66.97"/>
</svg>
